<svg xmlns="http://www.w3.org/2000/svg" viewBox="0 0 128 128" role="img" aria-label="北京高校地图图标">
  <rect width="128" height="128" rx="26" fill="#f5f1e8" />
  <circle cx="64" cy="64" r="50" fill="#174c3c" />
  <path d="M29 82c17 10 37 13 58 6 12-4 22-11 32-20-4 20-21 36-43 42-24 7-48-2-62-20 5 0 10-2 15-8Z" fill="#b58a43" />
  <path d="M25 74c18-16 38-22 60-17 11 2 21 7 30 15-14-3-27 0-39 8-14 8-31 8-51-6Z" fill="#dce9df" />
  <path d="M36 58h56L64 38 36 58Z" fill="#fffaf1" />
  <rect x="42" y="59" width="44" height="28" fill="#fffaf1" />
  <path d="M36 59h56" stroke="#a94335" stroke-width="8" stroke-linecap="round" />
  <rect x="50" y="67" width="8" height="20" fill="#174c3c" />
  <rect x="70" y="67" width="8" height="20" fill="#174c3c" />
  <path d="M88 23c12 0 22 10 22 22 0 17-22 39-22 39S66 62 66 45c0-12 10-22 22-22Z" fill="#315f83" />
  <circle cx="88" cy="45" r="8" fill="#fffaf1" />
  <path d="M32 101c12-11 23-16 36-13 12 2 21 1 31-8" fill="none" stroke="#fffaf1" stroke-width="5" stroke-linecap="round" stroke-dasharray="8 8" />
</svg>
